<svg width="291" height="25" viewBox="0 0 291 25" fill="none" xmlns="http://www.w3.org/2000/svg">
<rect width="291" height="25" fill="#1E1E1E"/>
<path d="M11.73 23.68C12.7753 23.68 13.4367 23.488 13.714 23.104C14.0127 22.72 14.162 22.0693 14.162 21.152V14.944H12.114V14.24H21.33V14.944H20.082V23.968H19.602C19.218 23.4347 18.674 23.168 17.97 23.168C17.6713 23.168 16.7753 23.36 15.282 23.744C13.81 24.128 12.5513 24.32 11.506 24.32C8.02867 24.32 5.33 23.3813 3.41 21.504C1.51133 19.6267 0.562 16.8107 0.562 13.056C0.562 9.28 1.554 6.368 3.538 4.32C5.54333 2.272 8.23133 1.248 11.602 1.248C12.9033 1.248 14.2047 1.41867 15.506 1.76C16.8287 2.08 17.5967 2.24 17.81 2.24C18.0233 2.24 18.1833 2.19733 18.29 2.112C18.3967 2.00533 18.514 1.83467 18.642 1.6H18.994L19.25 8.544H18.674C17.6287 6.47467 16.5727 4.85333 15.506 3.68C14.4607 2.48533 13.2873 1.888 11.986 1.888C8.722 1.888 7.09 5.07733 7.09 11.456V13.984C7.09 17.184 7.48467 19.6053 8.274 21.248C9.08467 22.8693 10.2367 23.68 11.73 23.68ZM30.2188 16.48H31.1468V14.016C31.1468 11.9893 31.0294 10.6347 30.7948 9.952C30.5814 9.248 30.1548 8.896 29.5148 8.896C29.1308 8.896 28.7788 9.00267 28.4588 9.216C28.1601 9.408 28.0108 9.68533 28.0108 10.048C28.0108 10.3893 28.0748 10.7413 28.2028 11.104H29.0028C29.1734 11.552 29.2588 12.096 29.2588 12.736C29.2588 13.3547 28.9921 13.8987 28.4588 14.368C27.9254 14.816 27.2534 15.04 26.4427 15.04C24.6081 15.04 23.6908 14.1547 23.6908 12.384C23.6908 9.76 25.9201 8.448 30.3788 8.448C32.9174 8.448 34.6668 8.88533 35.6268 9.76C36.6081 10.6133 37.0988 12.192 37.0988 14.496V20.992C37.0988 22.1013 37.4081 22.656 38.0268 22.656C38.7521 22.656 39.1788 21.5573 39.3068 19.36L39.7868 19.392C39.7014 21.2693 39.3494 22.56 38.7308 23.264C38.1121 23.968 37.0988 24.32 35.6908 24.32C33.1308 24.32 31.6588 23.5307 31.2748 21.952C30.9974 22.7627 30.5814 23.36 30.0268 23.744C29.4721 24.128 28.6614 24.32 27.5948 24.32C24.4374 24.32 22.8588 23.0293 22.8588 20.448C22.8588 18.9333 23.4561 17.8987 24.6508 17.344C25.8668 16.768 27.7228 16.48 30.2188 16.48ZM28.9388 20.416C28.9388 21.5253 28.9921 22.24 29.0988 22.56C29.2268 22.88 29.4508 23.04 29.7708 23.04C30.1121 23.04 30.4214 22.7733 30.6988 22.24C30.9974 21.6853 31.1468 20.928 31.1468 19.968V16.992H30.9228C29.6001 16.992 28.9388 17.9627 28.9388 19.904V20.416ZM51.7813 15.392C51.7813 13.1947 51.6746 11.7227 51.4613 10.976C51.2479 10.208 50.8319 9.824 50.2133 9.824C49.5946 9.824 49.0399 10.208 48.5493 10.976C48.0586 11.744 47.8133 12.8 47.8133 14.144V20.096C47.8133 21.0133 47.9946 21.792 48.3573 22.432C48.7413 23.072 49.2746 23.392 49.9573 23.392C50.6613 23.392 51.1413 22.9227 51.3973 21.984C51.6533 21.0453 51.7813 19.4027 51.7813 17.056V15.392ZM47.8133 -1.90735e-06V11.2C48.6239 9.36533 50.0106 8.448 51.9733 8.448C55.9626 8.448 57.9573 11.104 57.9573 16.416C57.9573 19.1253 57.4026 21.12 56.2933 22.4C55.2053 23.68 53.5626 24.32 51.3653 24.32C50.2559 24.32 49.4026 24.1493 48.8053 23.808C48.2293 23.4667 47.8346 22.9013 47.6213 22.112L47.3973 24H40.1013V23.424H41.8613V0.575998H40.1013V-1.90735e-06H47.8133ZM69.6018 9.664C68.8124 9.664 68.1191 10.176 67.5218 11.2C66.9244 12.224 66.6258 13.44 66.6258 14.848V23.424H68.8978V24H58.9138V23.424H60.6738V9.344H58.9138V8.768H66.6258V11.84C66.9031 10.752 67.4364 9.92 68.2258 9.344C69.0151 8.74667 69.9111 8.448 70.9138 8.448C71.9164 8.448 72.7271 8.736 73.3458 9.312C73.9858 9.86667 74.3058 10.6667 74.3058 11.712C74.3058 12.736 74.0711 13.5253 73.6018 14.08C73.1324 14.6347 72.4071 14.912 71.4258 14.912C70.4658 14.912 69.7511 14.592 69.2818 13.952C68.8338 13.312 68.7804 12.4267 69.1218 11.296H70.2738C70.8071 10.208 70.5831 9.664 69.6018 9.664ZM79.4615 6.56C78.3308 6.56 77.5202 6.272 77.0295 5.696C76.5602 5.12 76.3255 4.40533 76.3255 3.552C76.3255 2.69867 76.5815 1.99467 77.0935 1.44C77.6268 0.885333 78.4268 0.608 79.4935 0.608C80.5602 0.608 81.3708 0.864 81.9255 1.376C82.4802 1.86667 82.7575 2.58133 82.7575 3.52C82.7575 4.43733 82.4908 5.17333 81.9575 5.728C81.4242 6.28267 80.5922 6.56 79.4615 6.56ZM74.6295 8.768H82.4695V23.424H84.2615V24H74.7575V23.424H76.5175V9.344H74.6295V8.768ZM93.3298 24.32C90.5778 24.32 88.5084 23.616 87.1218 22.208C85.7564 20.7787 85.0738 18.8053 85.0738 16.288C85.0738 13.7493 85.8418 11.808 87.3778 10.464C88.9351 9.12 90.9084 8.448 93.2978 8.448C98.1404 8.448 100.466 10.88 100.274 15.744H91.2498V16.992C91.2498 19.0827 91.5164 20.6613 92.0498 21.728C92.5831 22.7947 93.5111 23.328 94.8338 23.328C97.3084 23.328 98.9298 22.0053 99.6978 19.36L100.274 19.456C99.8684 20.992 99.1324 22.1867 98.0658 23.04C97.0204 23.8933 95.4418 24.32 93.3298 24.32ZM91.2818 15.104H94.5778V13.536C94.5778 11.808 94.4711 10.6347 94.2578 10.016C94.0658 9.376 93.6604 9.056 93.0417 9.056C92.4444 9.056 91.9964 9.39733 91.6978 10.08C91.4204 10.7413 91.2818 11.8933 91.2818 13.536V15.104ZM101.286 -1.90735e-06H109.126V23.424H110.918V24H101.414V23.424H103.174V0.575998H101.286V-1.90735e-06ZM128.755 1.6H137.299V2.208H135.539V23.392H137.299V24H127.539V23.392H129.299V3.392H129.171L124.371 24H120.371L114.739 3.296H114.611V23.392H116.371V24H112.019V23.392H113.779V2.208H112.019V1.6H120.659L124.915 18.08L128.755 1.6ZM148.75 17.696V14.976C148.75 12.9067 148.632 11.4027 148.398 10.464C148.184 9.504 147.672 9.024 146.862 9.024C146.392 9.024 146.008 9.16267 145.71 9.44C145.432 9.696 145.23 10.1333 145.102 10.752C144.91 11.712 144.814 13.1733 144.814 15.136V17.632C144.814 19.9573 144.878 21.3547 145.006 21.824C145.155 22.2933 145.304 22.6773 145.454 22.976C145.688 23.488 146.147 23.744 146.83 23.744C147.662 23.744 148.206 23.264 148.462 22.304C148.654 21.6213 148.75 20.0853 148.75 17.696ZM146.766 24.32C144.099 24.32 142.083 23.6373 140.718 22.272C139.352 20.9067 138.67 18.9547 138.67 16.416C138.67 13.856 139.395 11.8933 140.846 10.528C142.318 9.14133 144.376 8.448 147.022 8.448C149.667 8.448 151.64 9.088 152.942 10.368C154.243 11.6267 154.894 13.5573 154.894 16.16C154.894 21.6 152.184 24.32 146.766 24.32ZM166.477 9.664C165.687 9.664 164.994 10.176 164.397 11.2C163.799 12.224 163.501 13.44 163.501 14.848V23.424H165.773V24H155.789V23.424H157.549V9.344H155.789V8.768H163.501V11.84C163.778 10.752 164.311 9.92 165.101 9.344C165.89 8.74667 166.786 8.448 167.789 8.448C168.791 8.448 169.602 8.736 170.221 9.312C170.861 9.86667 171.181 10.6667 171.181 11.712C171.181 12.736 170.946 13.5253 170.477 14.08C170.007 14.6347 169.282 14.912 168.301 14.912C167.341 14.912 166.626 14.592 166.157 13.952C165.709 13.312 165.655 12.4267 165.997 11.296H167.149C167.682 10.208 167.458 9.664 166.477 9.664ZM179.892 24.32C177.14 24.32 175.071 23.616 173.684 22.208C172.319 20.7787 171.636 18.8053 171.636 16.288C171.636 13.7493 172.404 11.808 173.94 10.464C175.498 9.12 177.471 8.448 179.86 8.448C184.703 8.448 187.028 10.88 186.836 15.744H177.812V16.992C177.812 19.0827 178.079 20.6613 178.612 21.728C179.146 22.7947 180.074 23.328 181.396 23.328C183.871 23.328 185.492 22.0053 186.26 19.36L186.836 19.456C186.431 20.992 185.695 22.1867 184.628 23.04C183.583 23.8933 182.004 24.32 179.892 24.32ZM177.844 15.104H181.14V13.536C181.14 11.808 181.034 10.6347 180.82 10.016C180.628 9.376 180.223 9.056 179.604 9.056C179.007 9.056 178.559 9.39733 178.26 10.08C177.983 10.7413 177.844 11.8933 177.844 13.536V15.104ZM192.68 6.56C191.55 6.56 190.739 6.272 190.248 5.696C189.779 5.12 189.544 4.40533 189.544 3.552C189.544 2.69867 189.8 1.99467 190.312 1.44C190.846 0.885333 191.646 0.608 192.712 0.608C193.779 0.608 194.59 0.864 195.144 1.376C195.699 1.86667 195.976 2.58133 195.976 3.52C195.976 4.43733 195.71 5.17333 195.176 5.728C194.643 6.28267 193.811 6.56 192.68 6.56ZM187.848 8.768H195.688V23.424H197.48V24H187.976V23.424H189.736V9.344H187.848V8.768ZM208.821 9.664C208.031 9.664 207.338 10.176 206.741 11.2C206.143 12.224 205.845 13.44 205.845 14.848V23.424H208.117V24H198.133V23.424H199.893V9.344H198.133V8.768H205.845V11.84C206.122 10.752 206.655 9.92 207.445 9.344C208.234 8.74667 209.13 8.448 210.133 8.448C211.135 8.448 211.946 8.736 212.565 9.312C213.205 9.86667 213.525 10.6667 213.525 11.712C213.525 12.736 213.29 13.5253 212.821 14.08C212.351 14.6347 211.626 14.912 210.645 14.912C209.685 14.912 208.97 14.592 208.501 13.952C208.053 13.312 207.999 12.4267 208.341 11.296H209.493C210.026 10.208 209.802 9.664 208.821 9.664ZM221.188 16.48H222.116V14.016C222.116 11.9893 221.998 10.6347 221.764 9.952C221.55 9.248 221.124 8.896 220.484 8.896C220.1 8.896 219.748 9.00267 219.428 9.216C219.129 9.408 218.98 9.68533 218.98 10.048C218.98 10.3893 219.044 10.7413 219.172 11.104H219.972C220.142 11.552 220.228 12.096 220.228 12.736C220.228 13.3547 219.961 13.8987 219.428 14.368C218.894 14.816 218.222 15.04 217.411 15.04C215.577 15.04 214.66 14.1547 214.66 12.384C214.66 9.76 216.889 8.448 221.348 8.448C223.886 8.448 225.636 8.88533 226.596 9.76C227.577 10.6133 228.068 12.192 228.068 14.496V20.992C228.068 22.1013 228.377 22.656 228.996 22.656C229.721 22.656 230.148 21.5573 230.276 19.36L230.756 19.392C230.67 21.2693 230.318 22.56 229.7 23.264C229.081 23.968 228.068 24.32 226.66 24.32C224.1 24.32 222.628 23.5307 222.244 21.952C221.966 22.7627 221.55 23.36 220.996 23.744C220.441 24.128 219.63 24.32 218.564 24.32C215.406 24.32 213.828 23.0293 213.828 20.448C213.828 18.9333 214.425 17.8987 215.62 17.344C216.836 16.768 218.692 16.48 221.188 16.48ZM219.908 20.416C219.908 21.5253 219.961 22.24 220.068 22.56C220.196 22.88 220.42 23.04 220.74 23.04C221.081 23.04 221.39 22.7733 221.668 22.24C221.966 21.6853 222.116 20.928 222.116 19.968V16.992H221.892C220.569 16.992 219.908 17.9627 219.908 19.904V20.416ZM234.942 24.32C234.025 24.32 233.331 24.0533 232.862 23.52C232.414 22.9653 232.19 22.304 232.19 21.536C232.19 20.7467 232.425 20.0853 232.894 19.552C233.385 19.0187 234.067 18.752 234.942 18.752C235.817 18.752 236.51 18.976 237.022 19.424C237.534 19.872 237.79 20.544 237.79 21.44C237.79 22.336 237.545 23.04 237.054 23.552C236.585 24.064 235.881 24.32 234.942 24.32ZM246.035 17.376C246.035 19.616 246.152 21.1093 246.387 21.856C246.621 22.5813 247.048 22.944 247.667 22.944C248.307 22.944 248.851 22.6667 249.299 22.112C249.768 21.5573 250.003 20.736 250.003 19.648V12.672C250.003 11.7547 249.821 10.976 249.459 10.336C249.096 9.696 248.563 9.376 247.859 9.376C247.155 9.376 246.675 9.84533 246.419 10.784C246.163 11.7227 246.035 13.3653 246.035 15.712V17.376ZM250.419 24L250.067 21.76C249.341 23.4667 247.869 24.32 245.651 24.32C243.816 24.32 242.387 23.6587 241.363 22.336C240.36 21.0133 239.859 19.04 239.859 16.416C239.859 11.104 241.971 8.448 246.195 8.448C248.072 8.448 249.309 8.97067 249.907 10.016V0.575998H247.955V-1.90735e-06H255.955V23.424H257.523V24H250.419ZM266.767 24.32C264.015 24.32 261.946 23.616 260.559 22.208C259.194 20.7787 258.511 18.8053 258.511 16.288C258.511 13.7493 259.279 11.808 260.815 10.464C262.373 9.12 264.346 8.448 266.735 8.448C271.578 8.448 273.903 10.88 273.711 15.744H264.687V16.992C264.687 19.0827 264.954 20.6613 265.487 21.728C266.021 22.7947 266.949 23.328 268.271 23.328C270.746 23.328 272.367 22.0053 273.135 19.36L273.711 19.456C273.306 20.992 272.57 22.1867 271.503 23.04C270.458 23.8933 268.879 24.32 266.767 24.32ZM264.719 15.104H268.015V13.536C268.015 11.808 267.909 10.6347 267.695 10.016C267.503 9.376 267.098 9.056 266.479 9.056C265.882 9.056 265.434 9.39733 265.135 10.08C264.858 10.7413 264.719 11.8933 264.719 13.536V15.104ZM273.719 9.344V8.768H283.287V9.344H281.271L285.111 19.968L288.567 9.344H286.423V8.768H290.743V9.344H289.335L284.599 24H280.951L275.031 9.344H273.719Z" fill="black"/>
</svg>
